<?xml version="1.0" standalone="no"?>
<!DOCTYPE svg PUBLIC "-//W3C//DTD SVG 20010904//EN"
 "http://www.w3.org/TR/2001/REC-SVG-20010904/DTD/svg10.dtd">
<svg version="1.0" xmlns="http://www.w3.org/2000/svg"
 width="1200.000000pt" height="1200.000000pt" viewBox="0 0 1200.000000 1200.000000"
 preserveAspectRatio="xMidYMid meet">
<metadata>
Created by potrace 1.11, written by Peter Selinger 2001-2013
</metadata>
<g transform="translate(0.000000,1200.000000) scale(0.100000,-0.100000)"
fill="#000000" stroke="none">
<path d="M6265 7170 c-3 -5 -2 -10 4 -10 5 0 13 5 16 10 3 6 2 10 -4 10 -5 0
-13 -4 -16 -10z"/>
<path d="M6277 7140 c9 -10 10 -17 2 -27 -14 -17 -3 -51 12 -36 6 6 11 17 12
24 2 8 7 20 11 28 6 10 5 12 -3 7 -6 -4 -20 -2 -29 5 -14 11 -15 11 -5 -1z"/>
<path d="M6329 7114 c-5 -15 -8 -29 -5 -31 2 -2 8 10 14 26 13 38 5 41 -9 5z"/>
<path d="M5282 7100 c0 -14 2 -19 5 -12 2 6 2 18 0 25 -3 6 -5 1 -5 -13z"/>
<path d="M6429 7088 c-9 -21 -28 -39 -51 -51 -21 -9 -38 -23 -38 -30 0 -8 3
-7 10 3 5 8 12 11 16 7 8 -8 94 76 94 92 0 22 -17 10 -31 -21z"/>
<path d="M5256 7068 c1 -23 6 -44 12 -46 6 -2 9 5 7 15 -2 10 -4 30 -4 46 -1
15 -4 27 -8 27 -5 0 -7 -19 -7 -42z"/>
<path d="M5359 7103 c-10 -2 -19 -13 -22 -25 -4 -12 -10 -17 -17 -13 -13 8
-30 -11 -30 -34 0 -11 4 -10 13 4 20 26 28 6 23 -55 -5 -63 -11 -70 -25 -29
l-11 32 -20 -23 c-12 -13 -18 -31 -15 -39 5 -13 4 -13 -6 -4 -10 10 -17 9 -36
-8 -12 -12 -32 -27 -44 -33 -12 -6 -24 -18 -26 -26 -3 -10 1 -8 11 4 9 11 19
17 23 13 18 -18 -109 -97 -157 -97 -11 0 -20 -4 -20 -8 0 -14 -60 -44 -76 -38
-9 3 -12 1 -9 -4 3 -6 2 -10 -4 -10 -5 0 -13 -9 -16 -20 -3 -11 -11 -20 -16
-20 -6 0 -7 6 -3 13 7 11 -63 -49 -77 -66 -3 -5 -18 -5 -32 -2 -19 5 -28 3
-33 -8 -3 -9 -12 -18 -20 -21 -8 -3 -13 -2 -10 3 3 5 -11 4 -32 -1 -20 -5 -47
-9 -59 -9 -13 0 -23 -4 -23 -9 0 -6 13 -9 28 -8 15 1 33 -1 40 -6 7 -4 12 -2
12 3 0 6 7 11 15 11 21 0 19 -20 -2 -21 -47 -3 -99 4 -104 13 -4 5 -9 2 -13
-7 -3 -9 -11 -13 -17 -9 -8 4 -9 3 -5 -5 5 -7 13 -8 19 -4 7 5 30 6 52 2 l40
-6 -47 -3 c-71 -4 -71 -4 -76 -19 -3 -10 4 -12 32 -9 20 2 36 0 36 -4 0 -4
-15 -8 -34 -8 -44 0 -66 -9 -66 -26 0 -7 -11 -48 -25 -89 -14 -42 -23 -80 -20
-85 3 -6 1 -10 -4 -10 -6 0 -11 -9 -11 -21 0 -11 -4 -18 -9 -15 -10 6 -25 -24
-16 -32 3 -3 5 0 5 6 0 7 5 12 12 12 6 0 2 -10 -9 -22 -11 -13 -26 -34 -33
-48 -18 -35 -151 -210 -160 -210 -6 0 -28 -44 -34 -70 -1 -3 -9 -17 -19 -31
-10 -15 -17 -31 -16 -35 4 -21 -2 -44 -14 -56 -8 -7 -19 -30 -26 -51 -7 -20
-17 -39 -22 -42 -5 -4 -9 -14 -9 -23 1 -14 2 -14 12 3 12 19 12 19 19 -5 l6
-25 12 25 c11 24 11 24 6 -5 -3 -16 -12 -34 -19 -40 -17 -13 -16 -43 1 -49 20
-8 16 -26 -6 -26 -24 0 -45 -25 -35 -42 4 -7 4 -10 -1 -6 -18 17 -47 -77 -49
-159 -1 -28 4 -45 13 -48 11 -4 11 -8 1 -20 -15 -19 -11 -19 32 -1 30 13 37
23 57 89 13 41 21 84 18 96 -3 12 -1 19 4 15 5 -3 9 -36 9 -73 0 -53 4 -72 20
-89 21 -22 27 -37 11 -28 -19 12 -59 -13 -70 -45 -9 -27 -8 -34 7 -45 15 -11
17 -9 20 17 2 16 9 29 16 29 9 0 12 -15 10 -51 -3 -59 -9 -70 -28 -43 -8 10
-18 16 -22 11 -4 -4 -2 -7 6 -7 10 0 10 -3 0 -15 -14 -17 -18 -76 -7 -117 9
-33 27 -37 27 -7 0 11 5 17 10 14 6 -3 10 -18 10 -32 0 -15 7 -34 16 -44 8 -9
16 -30 18 -45 1 -16 8 -28 14 -26 12 2 15 -11 13 -58 0 -14 2 -19 5 -12 5 10
9 10 22 0 13 -11 14 -10 9 15 -4 15 -9 39 -12 55 -3 15 -11 43 -17 63 -8 27
-7 41 1 55 11 18 12 17 6 -3 -3 -12 -1 -24 4 -28 36 -22 72 -187 70 -319 -1
-57 -5 -92 -10 -84 -5 8 -8 -4 -7 -30 2 -48 17 -68 19 -25 1 19 3 22 6 8 2
-11 -3 -45 -11 -75 -8 -32 -11 -56 -5 -58 5 -2 9 -11 9 -20 0 -15 2 -15 10 -2
5 8 10 11 11 5 1 -5 3 -21 5 -35 1 -14 6 -37 10 -53 5 -23 4 -26 -10 -21 -9 4
-15 9 -12 12 3 2 -4 16 -14 30 -11 13 -20 33 -20 43 0 11 -4 19 -10 19 -19 0
-13 -25 33 -132 10 -24 13 -25 19 -10 4 10 7 0 7 -26 1 -26 5 -41 11 -37 6 3
10 -2 11 -12 0 -11 3 -13 6 -5 9 23 23 1 22 -36 -2 -30 -3 -32 -6 -9 -2 15
-10 27 -18 27 -10 0 -8 -11 8 -42 12 -24 21 -45 22 -48 4 -23 18 -50 25 -50 5
0 8 -8 7 -19 -2 -25 33 -101 47 -101 11 0 23 -21 64 -105 27 -57 43 -268 36
-475 -3 -91 -5 -175 -5 -187 0 -13 -3 -23 -8 -23 -5 0 -7 -9 -4 -19 3 -11 -9
-60 -26 -110 -17 -50 -31 -99 -31 -110 0 -17 -17 -37 -90 -101 -9 -8 -30 -22
-46 -31 -16 -10 -38 -30 -49 -46 -11 -16 -26 -28 -33 -25 -14 4 -133 -106
-131 -122 3 -27 -4 -36 -53 -66 -28 -18 -82 -56 -118 -86 -37 -30 -69 -54 -72
-54 -2 0 -48 -28 -101 -63 -53 -34 -121 -77 -150 -95 -30 -19 -79 -55 -110
-80 -31 -26 -86 -69 -122 -97 -37 -27 -77 -59 -89 -70 -44 -39 -71 -60 -97
-77 -33 -21 -47 -72 -55 -204 -8 -121 6 -213 82 -544 30 -130 61 -283 69 -340
9 -58 18 -112 20 -120 4 -14 19 -162 31 -313 2 -31 13 -103 24 -158 11 -55 20
-102 20 -105 0 -2 1161 -4 2579 -4 l2579 0 12 73 c6 39 13 90 17 112 3 22 8
45 12 50 3 6 6 46 7 90 2 213 29 560 59 760 65 435 65 433 55 560 -14 171 -19
189 -81 246 -49 45 -62 53 -80 51 -4 -1 -23 14 -44 33 -20 19 -42 35 -50 35
-7 0 -15 7 -19 15 -3 8 -12 12 -21 9 -26 -10 -85 5 -79 20 3 8 1 17 -5 21 -6
3 -11 1 -11 -4 0 -6 -22 3 -49 19 -57 35 -65 37 -58 10 3 -12 1 -18 -5 -14 -5
3 -8 15 -5 25 5 18 -14 43 -26 34 -4 -3 -5 -2 -3 1 3 3 -4 16 -15 28 -11 11
-27 35 -34 52 -11 27 -17 31 -41 27 -23 -4 -26 -2 -14 6 8 6 25 11 36 11 33 0
48 24 26 42 -39 33 -122 79 -132 73 -5 -3 -10 0 -10 7 -1 9 -5 8 -13 -4 -9
-12 -17 -14 -30 -7 -22 13 -33 5 -53 -33 -20 -39 -20 -97 -1 -135 8 -15 41
-52 74 -82 32 -30 47 -48 33 -41 -14 7 -52 38 -84 69 -32 31 -56 48 -53 39 4
-10 2 -18 -3 -18 -6 0 -10 6 -10 13 0 8 -4 7 -11 -3 -8 -11 -9 1 -5 45 3 33 1
54 -3 47 -11 -18 -2 143 9 174 6 14 8 30 4 35 -3 5 1 9 8 9 7 0 4 6 -7 12 -11
6 -30 21 -43 34 -13 13 -32 24 -42 24 -11 0 -20 7 -20 14 0 16 -60 66 -78 66
-7 0 -12 4 -12 8 0 5 -32 42 -70 83 -57 59 -73 71 -80 59 -5 -8 -7 -31 -5 -50
3 -19 2 -29 -1 -22 -3 6 -9 10 -12 8 -4 -2 -8 25 -9 61 -1 55 -6 70 -30 101
-48 61 -75 112 -69 128 3 8 2 13 -3 10 -10 -7 -36 53 -45 104 -3 19 -3 30 0
23 4 -8 13 -9 30 -3 16 7 23 6 21 -2 -1 -6 4 -13 11 -15 7 -3 12 4 12 16 0 14
-6 21 -20 21 -13 0 -20 7 -20 20 0 11 -6 20 -14 20 -8 0 -18 10 -22 23 -4 12
-15 29 -25 38 -16 14 -18 33 -18 172 0 86 -2 161 -5 166 -13 21 45 139 100
201 12 14 25 46 28 71 4 26 19 66 34 90 39 62 52 95 52 130 0 30 26 160 37
189 3 8 5 21 4 28 -1 6 2 12 6 12 5 0 15 21 22 48 8 26 17 52 21 57 17 23 20
70 9 132 -10 59 -10 70 6 99 10 19 22 31 26 28 5 -3 9 5 10 18 2 131 9 181 37
263 16 50 33 110 37 134 4 24 14 59 21 78 13 29 17 32 35 23 30 -17 52 -4 72
41 13 29 17 58 14 96 -4 45 -2 52 9 42 12 -10 13 -9 8 4 -3 9 -14 19 -25 22
-17 6 -17 8 -4 21 18 19 18 19 3 61 -7 18 -18 33 -25 33 -9 0 -11 14 -8 53 3
28 1 47 -3 40 -4 -7 -13 -9 -20 -4 -10 6 -8 16 8 44 12 20 20 44 17 54 -3 13
-5 12 -6 -6 -1 -20 -5 -22 -28 -16 -34 8 -77 34 -69 42 3 3 -1 18 -9 34 -19
35 -19 40 0 32 9 -3 14 -8 11 -10 -3 -3 4 -23 15 -44 15 -30 25 -39 44 -39 29
0 32 8 8 25 -13 9 -13 14 -3 20 9 5 11 4 6 -3 -4 -7 -2 -12 3 -12 19 0 12 19
-11 32 -13 7 -26 11 -29 10 -4 0 -9 8 -12 20 -5 16 -3 18 6 9 16 -16 27 -14
27 5 0 8 -4 12 -10 9 -5 -3 -10 1 -10 11 0 12 -6 15 -24 12 -22 -4 -24 -2 -21
24 2 16 7 33 10 37 3 5 -3 12 -12 14 -17 4 -17 5 0 6 9 0 17 7 17 14 0 8 4 7
10 -3 6 -9 10 -10 10 -3 0 7 -21 24 -46 39 -25 15 -41 30 -35 33 16 10 4 79
-21 115 -15 21 -17 27 -5 17 15 -12 17 -11 17 6 0 10 -5 24 -12 31 -12 12 4
31 48 58 25 15 8 37 -23 29 -16 -4 -22 -2 -18 5 3 5 1 10 -5 10 -6 0 -10 8 -9
18 3 32 -1 39 -28 51 l-28 11 26 -22 c18 -16 25 -29 20 -41 -5 -14 -11 -10
-31 23 -14 22 -28 40 -32 40 -5 0 -7 3 -6 8 4 12 -26 52 -39 52 -6 0 -17 26
-23 58 -7 31 -17 63 -24 71 -8 12 -8 13 2 7 6 -4 12 -3 12 2 0 11 -70 33 -83
25 -6 -3 -7 -1 -3 5 5 8 0 12 -13 12 -12 0 -21 4 -21 10 0 5 -8 9 -17 8 -39
-3 -60 3 -60 17 0 11 4 12 14 3 7 -6 16 -9 19 -6 2 3 -7 13 -22 23 -15 9 -23
12 -20 6 4 -6 4 -11 -1 -11 -11 1 -79 70 -69 70 5 0 3 6 -4 14 -6 8 -18 12
-26 9 -8 -3 -14 -1 -14 5 0 6 4 12 9 14 5 2 4 10 -2 19 -8 10 -20 13 -37 8
l-25 -7 28 -1 c29 -1 36 -15 11 -25 -10 -4 -13 -2 -8 6 5 7 -1 9 -20 6 -14 -3
-29 -1 -32 3 -3 5 0 9 6 9 27 0 -3 18 -40 24 -23 3 -38 10 -35 15 3 5 -4 12
-15 16 -11 3 -20 11 -20 16 0 5 -10 13 -22 18 -25 9 -51 4 -43 -9 3 -5 -5 -6
-17 -2 -21 5 -21 5 3 15 21 9 17 12 -38 20 -46 7 -70 6 -93 -3 -16 -7 -28 -15
-26 -19 5 -8 -91 -6 -139 3 -28 6 -46 2 -78 -14 -42 -22 -94 -35 -202 -49 -33
-4 -71 -11 -85 -15 -19 -6 -21 -5 -10 3 13 9 12 11 -5 12 -70 3 -135 20 -135
35 0 16 -16 19 -24 5 -8 -13 39 -41 68 -41 14 0 27 -4 31 -9 3 -6 -10 -8 -32
-4 -27 4 -35 2 -28 -5 6 -6 24 -12 40 -15 l30 -4 -33 -2 c-18 0 -40 6 -48 14
-12 12 -12 15 -2 16 7 0 3 4 -10 9 -12 5 -28 8 -35 6 -6 -1 -9 -1 -4 1 14 9 7
35 -8 30 -8 -4 -17 -2 -20 3 -4 6 -13 10 -21 10 -9 0 -12 -5 -8 -12 4 -6 -4
-3 -18 8 -17 13 -22 21 -14 26 7 5 5 8 -6 8 -38 0 -2 -55 42 -65 17 -4 30 -11
30 -16 0 -5 -12 -7 -27 -3 -21 4 -24 3 -13 -5 8 -6 33 -8 55 -6 27 4 34 3 20
-3 -19 -9 -19 -9 0 -20 17 -11 16 -11 -10 -6 -16 4 -40 11 -52 15 -40 15 -25
0 27 -26 28 -14 50 -27 50 -28 0 -6 -45 0 -62 7 -9 4 -22 5 -28 1 -5 -3 -10
-1 -10 4 0 6 4 11 10 11 12 0 -71 78 -85 79 -5 1 -10 -9 -10 -21 0 -15 7 -24
20 -26 12 -2 16 0 9 5 -6 4 -14 17 -17 28 -6 16 -3 15 12 -5 11 -13 17 -28 15
-32 -3 -5 5 -13 18 -18 22 -10 22 -10 -2 -4 -14 4 -41 7 -60 6 -19 0 -29 3
-21 5 10 4 8 9 -10 20 -23 13 -23 14 -1 8 18 -5 22 -2 22 19 0 14 -4 28 -10
31 -5 3 -10 11 -10 17 0 7 6 6 15 -2 10 -9 15 -9 15 -1 0 6 -5 11 -11 11 -5 0
-7 5 -4 10 11 17 -7 11 -21 -7 -11 -15 -16 -16 -33 -5 -29 17 -34 15 -29 -13
3 -13 1 -22 -3 -19 -5 3 -9 15 -9 27 0 18 -9 25 -44 36 -25 7 -50 10 -55 6 -6
-3 -11 1 -11 9 0 9 -4 16 -10 16 -5 0 -10 -4 -10 -9 0 -4 -10 -6 -23 -4 -28 6
-59 -24 -38 -36 8 -6 2 -10 -19 -15 -27 -5 -30 -9 -21 -20 9 -11 9 -16 0 -22
-8 -4 -9 -3 -5 5 4 7 -2 15 -16 20 -17 7 -19 10 -5 10 9 1 17 6 17 11 0 6 6
10 13 10 6 0 22 18 34 40 20 38 20 41 4 50 -10 5 -33 12 -52 15 -18 3 -36 11
-40 16 -3 6 -10 10 -15 10 -18 -2 -44 11 -39 19 3 4 -2 11 -11 14 -23 9 -24 8
-17 -11 7 -17 6 -17 -11 0 -35 34 -56 40 -77 21 -18 -16 -19 -16 -19 4 0 14 5
20 14 16 8 -3 17 -1 20 5 8 12 -4 19 -25 14z m91 -101 c0 -4 -25 -5 -55 -4
-30 2 -55 7 -55 10 0 4 25 5 55 4 30 -2 55 -7 55 -10z m40 -5 c11 -5 9 -6 -4
-4 -11 1 -21 9 -23 17 -3 10 -2 11 4 4 4 -6 15 -14 23 -17z m50 -6 c0 -5 -9
-11 -20 -14 -29 -8 -24 -27 8 -28 24 -2 24 -2 4 -6 -19 -4 -21 -7 -11 -19 6
-8 19 -14 28 -15 12 0 12 -2 2 -6 -8 -3 -9 -8 -3 -12 5 -3 -13 -6 -41 -7 l-52
0 37 10 36 11 -19 23 -19 24 -29 -21 c-42 -30 -47 -26 -9 7 32 27 79 62 85 62
2 0 3 -4 3 -9z m-154 -13 c4 -7 3 -8 -4 -4 -15 9 -16 -18 -2 -45 7 -11 7 -19
1 -19 -12 0 -25 56 -16 70 8 13 12 13 21 -2z m191 -4 c-3 -3 -12 -4 -19 -1 -8
3 -5 6 6 6 11 1 17 -2 13 -5z m31 -46 c-2 -6 -10 -13 -16 -14 -7 -1 -8 0 -2 3
5 2 8 9 4 14 -3 5 0 9 6 9 7 0 10 -5 8 -12z m-301 -40 c-3 -8 -6 -5 -6 6 -1
11 2 17 5 13 3 -3 4 -12 1 -19z m363 12 c0 -5 -5 -10 -11 -10 -5 0 -7 5 -4 10
3 6 8 10 11 10 2 0 4 -4 4 -10z m-436 -9 c3 -4 -4 -19 -15 -32 -12 -15 -16
-25 -9 -27 13 -5 -73 -52 -95 -52 -8 0 -23 -9 -32 -20 -10 -11 -22 -20 -27
-20 -5 0 -15 -8 -23 -17 -13 -16 -13 -16 -3 5 6 12 17 22 25 22 8 0 15 5 15
10 0 6 17 18 38 27 20 8 47 20 58 26 12 5 30 27 40 48 21 43 21 43 28 30z
m1669 -8 c-7 -2 -19 -2 -25 0 -7 3 -2 5 12 5 14 0 19 -2 13 -5z m-1460 -10
c-7 -2 -21 -2 -30 0 -10 3 -4 5 12 5 17 0 24 -2 18 -5z m362 -12 c-3 -5 5 -17
17 -25 12 -9 17 -16 11 -16 -6 0 -16 7 -23 15 -7 8 -20 15 -29 15 -14 0 -14 2
-1 10 19 12 33 13 25 1z m760 -21 c-3 -5 -12 -10 -18 -10 -7 0 -6 4 3 10 19
12 23 12 15 0z m-944 -37 c13 -16 12 -17 -3 -4 -10 7 -18 15 -18 17 0 8 8 3
21 -13z m628 -12 c-15 -5 -22 6 -14 19 6 9 10 9 16 -1 5 -8 4 -15 -2 -18z
m260 25 c-10 -9 -69 -36 -69 -32 0 7 52 35 64 36 5 0 7 -2 5 -4z m-682 -38
c-3 -7 -5 -2 -5 12 0 14 2 19 5 13 2 -7 2 -19 0 -25z m986 0 c-12 -13 -23 -34
-26 -48 -4 -24 -4 -24 -6 3 -1 19 7 35 22 48 30 25 35 24 10 -3z m318 -15 c13
-16 12 -17 -3 -4 -10 7 -18 15 -18 17 0 8 8 3 21 -13z m-1368 0 c-7 -2 -21 -2
-30 0 -10 3 -4 5 12 5 17 0 24 -2 18 -5z m632 -3 c-11 -5 -27 -9 -35 -9 -9 0
-8 4 5 9 11 5 27 9 35 9 9 0 8 -4 -5 -9z m-538 -6 c-3 -3 -12 -4 -19 -1 -8 3
-5 6 6 6 11 1 17 -2 13 -5z m136 -47 l72 -3 -77 -2 c-77 -2 -78 -2 -79 -29
l-2 -28 -4 27 c-4 23 -10 27 -41 31 l-37 4 43 1 c36 2 42 5 43 25 l2 22 4 -22
c4 -20 11 -22 76 -26z m204 21 c-3 -8 -6 -5 -6 6 -1 11 2 17 5 13 3 -3 4 -12
1 -19z m136 15 c-7 -2 -19 -2 -25 0 -7 3 -2 5 12 5 14 0 19 -2 13 -5z m847 3
c0 -2 -7 -7 -16 -10 -8 -3 -12 -2 -9 4 6 10 25 14 25 6z m25 -5 c3 -5 2 -12
-3 -15 -5 -3 -9 1 -9 9 0 17 3 19 12 6z m40 -1 c3 -5 1 -10 -4 -10 -6 0 -11 5
-11 10 0 6 2 10 4 10 3 0 8 -4 11 -10z m-2273 -44 c-16 -19 -31 -38 -34 -43
-2 -4 -26 -28 -53 -53 l-50 -45 40 45 c22 24 42 47 45 50 3 3 21 24 39 48 18
24 36 41 39 38 2 -3 -9 -21 -26 -40z m1306 37 c-10 -2 -26 -2 -35 0 -10 3 -2
5 17 5 19 0 27 -2 18 -5z m-111 -9 c-3 -3 -12 -4 -19 -1 -8 3 -5 6 6 6 11 1
17 -2 13 -5z m-402 -24 c-3 -5 -27 -9 -53 -8 l-47 1 50 7 c28 4 51 8 53 8 2 1
0 -2 -3 -8z m1067 -70 c18 -11 28 -20 21 -20 -19 0 -73 51 -72 68 0 12 3 10 9
-5 5 -13 24 -32 42 -43z m288 56 c0 -2 -7 -7 -16 -10 -8 -3 -12 -2 -9 4 6 10
25 14 25 6z m60 0 c0 -2 -8 -10 -17 -17 -16 -13 -17 -12 -4 4 13 16 21 21 21
13z m-2200 -36 c-6 -11 -13 -20 -16 -20 -2 0 0 9 6 20 6 11 13 20 16 20 2 0 0
-9 -6 -20z m2075 0 c-3 -5 -12 -10 -18 -10 -7 0 -6 4 3 10 19 12 23 12 15 0z
m-45 -20 c-8 -5 -19 -10 -25 -10 -5 0 -3 5 5 10 8 5 20 10 25 10 6 0 3 -5 -5
-10z m-43 -16 c-3 -3 -12 -4 -19 -1 -8 3 -5 6 6 6 11 1 17 -2 13 -5z m-49 -11
c-10 -2 -26 -2 -35 0 -10 3 -2 5 17 5 19 0 27 -2 18 -5z m-2170 -38 l-36 -34
26 -4 c25 -4 25 -4 -3 -4 -16 1 -47 -5 -68 -12 -21 -7 -40 -11 -43 -9 -2 3 13
10 33 16 21 7 56 27 78 47 52 44 61 45 13 0z m77 -15 c-3 -5 -16 -10 -28 -9
-20 1 -20 2 3 9 14 4 26 8 28 9 2 1 0 -3 -3 -9z m-188 -76 c-3 -3 -12 -4 -19
-1 -8 3 -5 6 6 6 11 1 17 -2 13 -5z m-154 -189 c-3 -9 -8 -14 -10 -11 -3 3 -2
9 2 15 9 16 15 13 8 -4z m3167 4 c0 -3 -11 -9 -25 -11 -25 -5 -35 7 -12 15 19
6 37 4 37 -4z m23 -24 c4 -8 3 -16 -1 -19 -4 -3 -9 4 -9 15 -2 23 3 25 10 4z
m67 -5 c0 -5 -2 -10 -4 -10 -3 0 -8 5 -11 10 -3 6 -1 10 4 10 6 0 11 -4 11
-10z m-77 -100 c-3 -11 -7 -20 -9 -20 -2 0 -4 9 -4 20 0 11 4 20 9 20 5 0 7
-9 4 -20z m11 -116 c3 -8 2 -12 -4 -9 -6 3 -10 10 -10 16 0 14 7 11 14 -7z
m13 -86 c-3 -8 -6 -5 -6 6 -1 11 2 17 5 13 3 -3 4 -12 1 -19z m43 -5 c0 -21
-3 -24 -9 -14 -5 8 -7 20 -4 28 8 21 13 15 13 -14z m30 7 c0 -5 -2 -10 -4 -10
-3 0 -8 5 -11 10 -3 6 -1 10 4 10 6 0 11 -4 11 -10z m-51 -48 c-1 -15 -2 -15
-6 1 -2 9 -9 14 -15 11 -7 -4 -8 -2 -4 5 10 15 26 4 25 -17z m-3449 4 c0 -2
-8 -10 -17 -17 -16 -13 -17 -12 -4 4 13 16 21 21 21 13z m3470 -59 c0 -5 -4
-5 -10 -2 -5 3 -10 14 -10 23 0 15 2 15 10 2 5 -8 10 -19 10 -23z m44 -149
c-4 -7 -2 -8 4 -4 6 4 20 -2 31 -13 17 -17 17 -20 4 -25 -13 -5 -13 -9 -2 -22
11 -14 9 -15 -17 -12 -22 2 -29 8 -29 25 0 12 -3 25 -7 28 -9 9 3 46 13 39 5
-3 6 -10 3 -16z m-3607 -190 c-3 -8 -6 -5 -6 6 -1 11 2 17 5 13 3 -3 4 -12 1
-19z m-27 -18 c0 -5 -7 -10 -15 -10 -8 0 -15 5 -15 10 0 6 7 10 15 10 8 0 15
-4 15 -10z m3593 -205 c4 -39 3 -50 -2 -30 -9 31 -14 102 -7 94 2 -2 6 -31 9
-64z m-3339 -1131 c9 -22 -3 -32 -14 -14 -12 19 -12 30 -1 30 5 0 12 -7 15
-16z m146 -319 c5 3 10 1 10 -5 0 -6 3 -9 8 -7 4 3 8 -6 9 -20 0 -14 7 -29 13
-33 7 -4 10 -12 6 -18 -3 -5 2 -18 12 -29 9 -10 13 -14 9 -7 -4 7 -4 15 1 18
8 5 21 -23 26 -54 1 -7 48 -72 62 -87 6 -7 14 -9 18 -6 3 4 6 4 6 0 0 -34 -69
35 -142 142 -9 14 -15 28 -12 33 3 4 -1 11 -10 14 -8 3 -12 12 -9 20 3 8 -1
14 -9 14 -8 0 -19 15 -26 33 -17 46 -14 59 3 19 8 -18 19 -31 25 -27z m247
-297 c-7 -25 2 -48 18 -48 6 0 23 -10 37 -22 46 -41 68 -58 68 -51 0 3 10 -5
23 -19 12 -14 41 -33 64 -43 23 -10 40 -22 37 -27 -3 -4 -1 -8 5 -8 6 0 22
-11 36 -25 24 -25 32 -45 18 -45 -10 0 -96 43 -103 51 -3 3 -26 20 -52 37 -25
18 -86 70 -135 117 l-88 86 30 13 c36 16 49 11 42 -16z m343 -277 c0 -5 8 -12
18 -15 10 -3 6 -4 -8 -3 -24 2 -38 18 -39 45 -1 10 3 10 14 -2 8 -8 15 -19 15
-25z m37 3 c-3 -3 -12 -4 -19 -1 -8 3 -5 6 6 6 11 1 17 -2 13 -5z m38 -44 c3
-5 -3 -10 -14 -10 -12 0 -21 5 -21 10 0 6 6 10 14 10 8 0 18 -4 21 -10z m2529
-606 c3 -8 2 -12 -4 -9 -6 3 -10 10 -10 16 0 14 7 11 14 -7z m41 -44 c10 -11
16 -20 13 -20 -3 0 -13 9 -23 20 -10 11 -16 20 -13 20 3 0 13 -9 23 -20z m202
-252 c-3 -8 -6 -5 -6 6 -1 11 2 17 5 13 3 -3 4 -12 1 -19z m63 8 c0 -2 -11 -6
-25 -8 -13 -3 -22 -1 -19 3 5 9 44 13 44 5z m-125 -177 c11 -16 1 -19 -13 -3
-7 8 -8 14 -3 14 5 0 13 -5 16 -11z m43 -89 c7 -11 11 -20 9 -20 -2 0 -12 9
-22 20 -10 11 -14 20 -9 20 5 0 15 -9 22 -20z m346 4 c3 -8 2 -12 -4 -9 -6 3
-10 10 -10 16 0 14 7 11 14 -7z"/>
<path d="M5065 3280 c3 -5 8 -10 11 -10 2 0 4 5 4 10 0 6 -5 10 -11 10 -5 0
-7 -4 -4 -10z"/>
<path d="M6236 7082 c-3 -5 1 -9 9 -9 8 0 15 4 15 9 0 4 -4 8 -9 8 -6 0 -12
-4 -15 -8z"/>
<path d="M5500 7051 c0 -10 30 -24 37 -17 3 2 -5 9 -16 16 -12 6 -21 7 -21 1z"/>
<path d="M6414 7014 c-18 -14 -18 -15 4 -4 12 6 22 13 22 15 0 8 -5 6 -26 -11z"/>
<path d="M5229 6990 c-1 -8 -3 -19 -3 -25 -1 -5 -5 -16 -10 -23 -14 -22 0 -23
19 -2 14 16 16 24 7 42 -7 16 -11 18 -13 8z"/>
<path d="M5300 6989 c0 -5 5 -7 10 -4 6 3 10 8 10 11 0 2 -4 4 -10 4 -5 0 -10
-5 -10 -11z"/>
<path d="M5875 6970 c-3 -5 1 -10 9 -10 9 0 16 5 16 10 0 6 -4 10 -9 10 -6 0
-13 -4 -16 -10z"/>
<path d="M5808 6953 c7 -3 16 -2 19 1 4 3 -2 6 -13 5 -11 0 -14 -3 -6 -6z"/>
<path d="M5840 6950 c0 -5 5 -10 11 -10 5 0 7 5 4 10 -3 6 -8 10 -11 10 -2 0
-4 -4 -4 -10z"/>
<path d="M6683 6937 c-18 -12 -33 -27 -33 -33 0 -28 167 -13 185 16 3 6 -1 7
-9 4 -9 -3 -16 -1 -16 6 0 6 -4 9 -9 5 -5 -3 -13 0 -16 6 -4 5 -14 8 -22 5 -8
-3 -11 -1 -8 4 10 16 -7 12 -28 -7 -19 -17 -20 -17 -14 0 4 9 5 17 4 16 -1 0
-17 -10 -34 -22z m43 -22 c-11 -8 -25 -15 -30 -15 -6 1 0 7 14 15 32 19 40 18
16 0z"/>
<path d="M5950 6932 c0 -5 7 -9 15 -9 8 0 15 4 15 9 0 4 -7 8 -15 8 -8 0 -15
-4 -15 -8z"/>
<path d="M5870 6926 c0 -2 9 -6 20 -9 11 -3 18 -1 14 4 -5 9 -34 13 -34 5z"/>
<path d="M6021 6886 c12 -10 60 -16 54 -6 -3 5 -18 10 -32 10 -15 0 -24 -2
-22 -4z"/>
<path d="M7117 6879 c7 -7 15 -10 18 -7 3 3 -2 9 -12 12 -14 6 -15 5 -6 -5z"/>
<path d="M4410 6560 c-13 -9 -13 -10 0 -9 8 0 24 4 35 9 l20 9 -20 0 c-11 0
-27 -4 -35 -9z"/>
<path d="M7552 6525 c-1 -16 6 -41 14 -55 10 -16 13 -18 8 -5 -4 11 -10 36
-14 55 -8 34 -8 34 -8 5z"/>
<path d="M7620 6539 c0 -5 5 -7 10 -4 6 3 10 8 10 11 0 2 -4 4 -10 4 -5 0 -10
-5 -10 -11z"/>
<path d="M7672 6503 c-13 -5 -7 -23 9 -23 6 0 8 4 5 9 -4 5 0 12 6 14 7 3 9 5
3 5 -5 0 -16 -2 -23 -5z"/>
<path d="M7708 6473 c7 -3 16 -2 19 1 4 3 -2 6 -13 5 -11 0 -14 -3 -6 -6z"/>
<path d="M4400 6393 c0 -10 -9 -29 -20 -43 -22 -28 -25 -40 -10 -40 11 0 29
31 40 71 5 17 5 29 -1 29 -5 0 -9 -8 -9 -17z"/>
<path d="M4375 6385 c-5 -11 -10 -24 -13 -30 -3 -5 3 -3 13 7 9 9 15 22 12 30
-3 9 -7 7 -12 -7z"/>
<path d="M7715 6319 c4 -6 13 -8 21 -5 8 3 14 1 14 -5 0 -6 5 -7 11 -3 8 4 7
9 -2 15 -20 12 -51 11 -44 -2z"/>
<path d="M4199 6245 c-1 -3 -2 -9 -3 -14 0 -5 -4 -13 -8 -17 -5 -4 -8 -14 -8
-23 1 -13 4 -12 16 4 8 11 12 25 10 32 -3 6 0 14 7 17 9 3 9 5 0 5 -7 1 -14
-1 -14 -4z"/>
<path d="M4349 6168 c-1 -7 -1 -17 0 -21 1 -4 -18 -33 -41 -65 -23 -31 -34
-51 -24 -43 28 23 72 94 73 119 2 23 -6 32 -8 10z"/>
<path d="M7712 6148 c-16 -16 -15 -28 1 -28 7 0 13 9 13 20 0 11 -1 20 -1 20
-1 0 -6 -5 -13 -12z"/>
<path d="M7780 6152 c0 -6 -9 -9 -20 -7 -19 4 -19 3 -3 -23 22 -35 27 -40 21
-22 -3 8 -1 23 4 33 5 10 7 21 4 25 -3 3 -6 0 -6 -6z"/>
<path d="M7790 6095 c0 -8 4 -15 10 -15 5 0 7 7 4 15 -4 8 -8 15 -10 15 -2 0
-4 -7 -4 -15z"/>
<path d="M7730 6026 c0 -14 5 -26 10 -26 6 0 10 9 10 19 0 11 -4 23 -10 26 -6
4 -10 -5 -10 -19z"/>
<path d="M7790 6041 c0 -6 4 -13 10 -16 6 -3 7 1 4 9 -7 18 -14 21 -14 7z"/>
<path d="M7796 5918 c3 -4 1 -8 -3 -8 -5 0 -14 -9 -21 -20 -11 -18 -10 -20 12
-20 18 0 25 6 28 28 3 19 0 29 -9 29 -6 0 -10 -4 -7 -9z"/>
<path d="M7832 5910 c0 -14 2 -19 5 -12 2 6 2 18 0 25 -3 6 -5 1 -5 -13z"/>
<path d="M7818 5853 c7 -3 16 -2 19 1 4 3 -2 6 -13 5 -11 0 -14 -3 -6 -6z"/>
<path d="M7831 5821 c-10 -17 -9 -21 3 -21 20 0 31 19 18 32 -7 7 -14 3 -21
-11z"/>
<path d="M7880 5798 c0 -9 5 -20 10 -23 13 -8 13 5 0 25 -8 13 -10 13 -10 -2z"/>
<path d="M7896 5675 c4 -8 10 -12 15 -9 11 6 2 24 -11 24 -5 0 -7 -7 -4 -15z"/>
<path d="M7844 5186 c11 -9 24 -16 30 -16 12 0 7 5 -24 19 -24 11 -24 11 -6
-3z"/>
<path d="M4060 5155 c-18 -19 -31 -37 -28 -40 6 -6 41 25 67 58 24 31 -4 18
-39 -18z"/>
<path d="M7860 5145 c0 -16 16 -20 24 -6 3 5 -1 11 -9 15 -9 3 -15 0 -15 -9z"/>
<path d="M7846 4964 c-8 -22 -8 -79 1 -70 8 7 16 86 9 86 -2 0 -7 -7 -10 -16z"/>
<path d="M7716 4858 c-9 -36 -7 -88 4 -88 6 0 10 11 10 24 0 13 3 38 6 55 7
36 -10 43 -20 9z"/>
<path d="M7805 4827 c-6 -7 -17 -32 -24 -56 -7 -25 -19 -54 -26 -65 -7 -12
-15 -47 -18 -79 l-6 -57 45 32 c45 32 57 58 28 58 -10 0 -14 -6 -11 -14 4 -10
1 -13 -8 -9 -8 3 -12 9 -9 14 3 5 -2 9 -10 9 -9 0 -16 5 -16 10 0 6 9 10 20
10 11 0 23 8 26 18 3 9 15 34 26 55 28 54 33 87 11 87 -10 -1 -23 -6 -28 -13z"/>
<path d="M7666 4674 c-4 -9 -4 -19 -1 -22 2 -3 7 3 11 12 4 9 4 19 1 22 -2 3
-7 -3 -11 -12z"/>
<path d="M4290 4434 c0 -8 5 -12 10 -9 6 3 10 10 10 16 0 5 -4 9 -10 9 -5 0
-10 -7 -10 -16z"/>
<path d="M4263 4377 c-2 -30 -1 -31 9 -9 7 14 8 26 2 32 -6 6 -10 -2 -11 -23z"/>
<path d="M4280 4354 c0 -8 5 -12 10 -9 6 4 8 11 5 16 -9 14 -15 11 -15 -7z"/>
<path d="M7546 3953 c-14 -14 -5 -33 17 -32 12 0 16 3 9 6 -6 2 -10 9 -7 13 7
11 -10 22 -19 13z"/>
<path d="M7492 3708 c3 -17 0 -32 -8 -39 -8 -6 -14 -16 -14 -21 0 -16 19 2 35
32 13 25 13 29 -2 41 -14 13 -16 11 -11 -13z"/>
<path d="M7420 3679 c0 -5 5 -7 10 -4 6 3 10 8 10 11 0 2 -4 4 -10 4 -5 0 -10
-5 -10 -11z"/>
<path d="M7530 3611 c-17 -14 -20 -20 -10 -21 22 0 43 16 38 30 -2 8 -11 5
-28 -9z"/>
<path d="M7484 3549 c-18 -5 -35 -16 -38 -25 -3 -8 -2 -12 4 -9 6 3 10 -3 10
-14 0 -11 4 -22 9 -25 11 -7 25 23 22 47 -2 16 8 21 36 18 6 -1 14 3 18 9 7
12 -18 12 -61 -1z"/>
<path d="M7555 3530 c3 -5 8 -10 11 -10 2 0 4 5 4 10 0 6 -5 10 -11 10 -5 0
-7 -4 -4 -10z"/>
<path d="M8015 2400 c-3 -5 -1 -10 4 -10 6 0 11 5 11 10 0 6 -2 10 -4 10 -3 0
-8 -4 -11 -10z"/>
<path d="M7921 2369 c-17 -49 -12 -58 9 -19 22 40 24 50 11 50 -5 0 -14 -14
-20 -31z"/>
<path d="M8222 2248 c-25 -12 -22 -41 5 -68 9 -8 13 -10 11 -5 -3 6 -2 19 2
30 7 17 9 16 16 -13 4 -19 14 -36 23 -40 9 -3 20 -10 24 -16 8 -10 1 20 -10
52 -3 7 3 12 13 12 17 0 16 1 -2 14 -14 11 -21 11 -27 3 -6 -9 -10 -9 -14 1
-2 6 -14 12 -26 12 -17 0 -19 2 -7 9 8 6 18 7 24 4 5 -3 6 -1 2 5 -4 7 -8 12
-9 11 -1 0 -12 -5 -25 -11z"/>
<path d="M8322 2144 c1 -9 9 -19 16 -22 9 -3 13 2 10 14 -1 9 -9 19 -16 22 -9
3 -13 -2 -10 -14z"/>
<path d="M8410 2056 c0 -2 7 -7 16 -10 8 -3 12 -2 9 4 -6 10 -25 14 -25 6z"/>
</g>
</svg>
